<?xml version="1.0" encoding="utf-8"?>
<!-- Generator: Adobe Illustrator 18.0.0, SVG Export Plug-In . SVG Version: 6.00 Build 0)  -->
<!DOCTYPE svg PUBLIC "-//W3C//DTD SVG 1.1//EN" "http://www.w3.org/Graphics/SVG/1.1/DTD/svg11.dtd">
<svg version="1.1" id="Layer_1" xmlns="http://www.w3.org/2000/svg" xmlns:xlink="http://www.w3.org/1999/xlink" x="0px" y="0px"
	 viewBox="0 0 64 64" enable-background="new 0 0 64 64" xml:space="preserve">
<path fill="#231F20" d="M31.8,11.2c11.4,0,20.8,9.3,20.8,20.8s-9.3,20.8-20.8,20.8S11,43.4,11,32S20.3,11.2,31.8,11.2 M31.8,8.2
	C18.7,8.2,8,18.9,8,32s10.6,23.8,23.8,23.8S55.5,45.1,55.5,32S44.9,8.2,31.8,8.2L31.8,8.2z"/>
<circle fill="#231F20" cx="32.2" cy="24.6" r="5.9"/>
<path fill="#231F20" d="M34.6,45.3h-4.8c-2.9,0-5.3-2.4-5.3-5.3v-3.5c0-2.9,1.3-5.3,4.2-5.3c2.2,0,4.8,0,7,0c2.9,0,4.2,2.4,4.2,5.3
	V40C39.9,42.9,37.5,45.3,34.6,45.3z"/>
</svg>
