<?xml version="1.0" encoding="utf-8"?>
<!-- Generator: Adobe Illustrator 18.0.0, SVG Export Plug-In . SVG Version: 6.00 Build 0)  -->
<!DOCTYPE svg PUBLIC "-//W3C//DTD SVG 1.1//EN" "http://www.w3.org/Graphics/SVG/1.1/DTD/svg11.dtd">
<svg version="1.1" id="Layer_1" xmlns="http://www.w3.org/2000/svg" xmlns:xlink="http://www.w3.org/1999/xlink" x="0px" y="0px"
	 viewBox="0 0 64 64" enable-background="new 0 0 64 64" xml:space="preserve">
<g>
	<path fill="#231F20" d="M54.4,24h-3.2c1,2.5,1.6,5.1,1.6,8c0,11.4-9.3,20.8-20.8,20.8S11.2,43.4,11.2,32S20.6,11.2,32,11.2
		c2.8,0,5.5,0.6,8,1.6V9.6c-2.5-0.9-5.2-1.4-8-1.4C18.9,8.2,8.2,18.9,8.2,32S18.9,55.8,32,55.8S55.8,45.1,55.8,32
		C55.8,29.2,55.3,26.5,54.4,24z"/>
</g>
<polygon points="52.1,14.6 49.5,14.6 49.5,12 46,12 46,14.6 43.4,14.6 43.4,18.1 46,18.1 46,20.7 49.5,20.7 49.5,18.1 52.1,18.1 "/>
<rect x="14.9" y="21.4" fill="none" width="32.1" height="21.2"/>
<text transform="matrix(1 0 0 1 18.2183 42.1694)"><tspan x="0" y="0" font-family="'Oxygen-Bold'" font-size="28">1</tspan><tspan x="9.8" y="0" font-family="'Oxygen-Bold'" font-size="28">8</tspan></text>
</svg>
