<?xml version="1.0" encoding="utf-8"?>
<!-- Generator: Adobe Illustrator 18.0.0, SVG Export Plug-In . SVG Version: 6.00 Build 0)  -->
<!DOCTYPE svg PUBLIC "-//W3C//DTD SVG 1.1//EN" "http://www.w3.org/Graphics/SVG/1.1/DTD/svg11.dtd">
<svg version="1.1" id="Layer_1" xmlns="http://www.w3.org/2000/svg" xmlns:xlink="http://www.w3.org/1999/xlink" x="0px" y="0px"
	 viewBox="0 0 64 64" enable-background="new 0 0 64 64" xml:space="preserve">
<path fill="#231F20" d="M32,11.2c11.4,0,20.8,9.3,20.8,20.8S43.4,52.8,32,52.8S11.2,43.4,11.2,32S20.6,11.2,32,11.2 M32,8.2
	C18.9,8.2,8.2,18.9,8.2,32S18.9,55.8,32,55.8S55.8,45.1,55.8,32S45.1,8.2,32,8.2L32,8.2z"/>
<circle fill="#231F20" cx="27.4" cy="24.4" r="5.9"/>
<path fill="#231F20" d="M29.8,45.1H25c-2.9,0-5.3-2.4-5.3-5.3v-3.5c0-2.9,1.3-5.3,4.2-5.3c2.2,0,4.8,0,7,0c2.9,0,4.2,2.4,4.2,5.3
	v3.5C35.2,42.7,32.8,45.1,29.8,45.1z"/>
<circle fill="#231F20" cx="39.6" cy="31.3" r="3.9"/>
<path fill="#231F20" d="M41.1,44.8H38c-1.9,0-3.5-1.6-3.5-3.5v-2.3c0-1.9,0.9-3.5,2.8-3.5c1.4,0,3.1,0,4.6,0c1.9,0,2.8,1.6,2.8,3.5
	v2.3C44.6,43.2,43.1,44.8,41.1,44.8z"/>
</svg>
