<?xml version="1.0" encoding="utf-8"?>
<!-- Generator: Adobe Illustrator 18.0.0, SVG Export Plug-In . SVG Version: 6.00 Build 0)  -->
<!DOCTYPE svg PUBLIC "-//W3C//DTD SVG 1.1//EN" "http://www.w3.org/Graphics/SVG/1.1/DTD/svg11.dtd">
<svg version="1.1" id="Layer_1" xmlns="http://www.w3.org/2000/svg" xmlns:xlink="http://www.w3.org/1999/xlink" x="0px" y="0px"
	 viewBox="0 0 64 64" enable-background="new 0 0 64 64" xml:space="preserve">
<path fill="#231F20" d="M37.5,30.7c1.9,0,3.4,1.5,3.4,3.4v7.3c0,1.9-1.5,3.4-3.4,3.4H26.4c-1.9,0-3.4-1.5-3.4-3.4v-7.3
	c0-1.9,1.5-3.4,3.4-3.4H37.5 M37.5,27.7H26.4c-3.5,0-6.4,2.9-6.4,6.4v7.3c0,3.5,2.9,6.4,6.4,6.4h11.2c3.5,0,6.4-2.9,6.4-6.4v-7.3
	C44,30.6,41.1,27.7,37.5,27.7L37.5,27.7z"/>
<g>
	<path fill="#231F20" d="M27,28.7h-3v-1.5c0-4.3,3.5-7.8,7.8-7.8s7.8,3.5,7.8,7.8v1.1h-3v-1.1c0-2.6-2.2-4.8-4.8-4.8
		S27,24.5,27,27.2V28.7z"/>
</g>
<path fill="#231F20" d="M34,36.5c0-1.2-1-2.3-2.3-2.3c-1.2,0-2.3,1-2.3,2.3c0,1,0.6,1.8,1.4,2.1l-1,2.6H34l-1.3-2.7
	C33.5,38.2,34,37.4,34,36.5z"/>
<path fill="#231F20" d="M32,11.3l20.8,8V53h-42V19.2L32,11.3 M32,8L7.8,17.2V56h48V17.2L32,8L32,8z"/>
</svg>
