<?xml version="1.0" encoding="utf-8"?>
<!-- Generator: Adobe Illustrator 18.0.0, SVG Export Plug-In . SVG Version: 6.00 Build 0)  -->
<!DOCTYPE svg PUBLIC "-//W3C//DTD SVG 1.1//EN" "http://www.w3.org/Graphics/SVG/1.1/DTD/svg11.dtd">
<svg version="1.1" id="Layer_1" xmlns="http://www.w3.org/2000/svg" xmlns:xlink="http://www.w3.org/1999/xlink" x="0px" y="0px"
	 viewBox="0 0 64 64" enable-background="new 0 0 64 64" xml:space="preserve">
<path d="M43.8,8.2H20.4c-6.6,0-12,5.4-12,12v4.5H5.7v3.5h2.7V36H5.7v3.5h2.7v4.2c0,6.6,5.4,12,12,12h23.3c6.6,0,12-5.4,12-12V20.2
	C55.8,13.6,50.3,8.2,43.8,8.2z M52.8,43.8c0,5-4,9-9,9H20.4c-5,0-9-4-9-9v-4.2h2.9V36h-2.9v-7.7h2.9v-3.5h-2.9v-4.5c0-5,4-9,9-9
	h23.3c5,0,9,4,9,9V43.8z"/>
<g>
	<path d="M33.1,23.4C33.1,23.4,33.1,23.4,33.1,23.4c1,0.1,1.6,0.9,1.7,1.9c0.1,1.4-0.7,2.5-0.7,3.9c0,0.6,0.1,0.9,0.5,0.9
		c0.1,0,0.2,0,0.3-0.1c0.7-0.2,1.5-0.3,2.2-0.3c0.3,0,0.7,0,1,0c1.4,0,2.1,0.9,1.8,2.3c-0.1,0.3,0,0.4,0.1,0.6
		c0.4,0.5,0.4,1,0.1,1.6c-0.2,0.3-0.3,0.6-0.2,1c0.1,0.5,0.2,1-0.2,1.4c-0.5,0.5-0.6,1-0.6,1.7c0,0.2-0.1,0.3-0.2,0.4
		c-0.6,0.7-1.3,1.1-2.2,1.2c-0.2,0-0.4,0.1-0.6,0.2c-0.4,0.3-0.9,0.4-1.5,0.4c-0.6,0-1.2-0.1-1.6-0.4c-0.2-0.1-0.4-0.2-0.7-0.2
		c0,0,0,0,0,0c-0.2,0-0.3,0-0.5,0c-1.1,0-2.1-0.1-3.2-0.4c-0.1,0-0.1,0-0.2,0c0,0-0.1,0-0.1,0c-0.5,0.3-1,0.4-1.5,0.4
		c-0.4,0-0.9,0-1.3,0c0,0-0.1,0-0.1,0c0,0,0,0,0,0c-0.7,0-1.2-0.5-1.2-1.2c0-1.9,0-3.8,0-5.7c0-0.8,0.4-1.2,1.2-1.2c0.3,0,0.7,0,1,0
		c0.3,0,0.7,0,1,0c0.5,0,0.8,0.1,1,0.4l0-0.1c0.4-0.5,0.8-1,1.2-1.5c1.5-1.9,2.8-3.9,3-6.4C32.4,23.7,32.7,23.4,33.1,23.4
		 M33.1,20.4C33.1,20.4,33.1,20.4,33.1,20.4c-1.9,0-3.5,1.6-3.7,3.5c-0.1,1.7-1,3.1-2.4,4.8c0,0,0,0.1-0.1,0.1c-0.2,0-0.5,0-0.7,0
		c-0.4,0-0.7,0-1.1,0c-2.4,0.1-4,1.8-4,4.2c0,0.6,0,1.3,0,1.9c0,1.2,0,2.5,0,3.7c0,1.2,0.4,2.3,1.2,3.1c0.8,0.8,1.8,1.2,3,1.2
		c0,0,0.1,0,0.1,0l0.1,0c0.2,0,0.3,0,0.5,0c0.3,0,0.5,0,0.8,0c0.7,0,1.4-0.1,2-0.3c1,0.2,2,0.3,3,0.3c0,0,0.1,0,0.1,0
		c1,0.5,2.1,0.6,2.7,0.6c0.8,0,1.8-0.1,2.8-0.6c1.5-0.2,2.9-1,3.9-2.2c0.6-0.8,0.8-1.6,0.9-2.2c0.9-1.1,0.9-2.4,0.8-3.2
		c0.5-1.2,0.5-2.4,0-3.6c0.1-1.2-0.3-2.3-0.9-3.2c-0.9-1.1-2.2-1.7-3.8-1.8l-0.2,0c-0.1,0-0.2,0-0.3,0c0.1-0.5,0.1-1.1,0.1-1.7
		c-0.2-2.5-1.8-4.3-4.2-4.6C33.4,20.4,33.2,20.4,33.1,20.4L33.1,20.4L33.1,20.4z"/>
</g>
</svg>
