<?xml version="1.0" encoding="utf-8"?>
<!-- Generator: Adobe Illustrator 18.0.0, SVG Export Plug-In . SVG Version: 6.00 Build 0)  -->
<!DOCTYPE svg PUBLIC "-//W3C//DTD SVG 1.1//EN" "http://www.w3.org/Graphics/SVG/1.1/DTD/svg11.dtd">
<svg version="1.1" id="Layer_1" xmlns="http://www.w3.org/2000/svg" xmlns:xlink="http://www.w3.org/1999/xlink" x="0px" y="0px"
	 viewBox="0 0 64 64" enable-background="new 0 0 64 64" xml:space="preserve">
<path fill="#231F20" d="M37.9,30.7c1.9,0,3.4,1.5,3.4,3.4v7.3c0,1.9-1.5,3.4-3.4,3.4H26.7c-1.9,0-3.4-1.5-3.4-3.4v-7.3
	c0-1.9,1.5-3.4,3.4-3.4H37.9 M37.9,27.7H26.7c-3.5,0-6.4,2.9-6.4,6.4v7.3c0,3.5,2.9,6.4,6.4,6.4h11.2c3.5,0,6.4-2.9,6.4-6.4v-7.3
	C44.3,30.6,41.4,27.7,37.9,27.7L37.9,27.7z"/>
<g>
	<path fill="#231F20" d="M27.4,28.7h-3v-1.5c0-4.3,3.5-7.8,7.8-7.8s7.8,3.5,7.8,7.8v1.1h-3v-1.1c0-2.6-2.2-4.8-4.8-4.8
		s-4.8,2.2-4.8,4.8V28.7z"/>
</g>
<path fill="#231F20" d="M34.4,36.5c0-1.2-1-2.3-2.3-2.3c-1.2,0-2.3,1-2.3,2.3c0,1,0.6,1.8,1.4,2.1l-1,2.6h4.1l-1.3-2.7
	C33.9,38.2,34.4,37.4,34.4,36.5z"/>
<path d="M43.8,8.2H20.4c-6.6,0-12,5.4-12,12v4.5H5.7v3.5h2.7V36H5.7v3.5h2.7v4.2c0,6.6,5.4,12,12,12h23.3c6.6,0,12-5.4,12-12V20.2
	C55.8,13.6,50.4,8.2,43.8,8.2z M52.8,43.8c0,5-4,9-9,9H20.4c-5,0-9-4-9-9v-4.2h2.9V36h-2.9v-7.7h2.9v-3.5h-2.9v-4.5c0-5,4-9,9-9
	h23.3c5,0,9,4,9,9V43.8z"/>
</svg>
