<?xml version="1.0" encoding="utf-8"?>
<!-- Generator: Adobe Illustrator 18.0.0, SVG Export Plug-In . SVG Version: 6.00 Build 0)  -->
<!DOCTYPE svg PUBLIC "-//W3C//DTD SVG 1.1//EN" "http://www.w3.org/Graphics/SVG/1.1/DTD/svg11.dtd">
<svg version="1.1" id="Layer_1" xmlns="http://www.w3.org/2000/svg" xmlns:xlink="http://www.w3.org/1999/xlink" x="0px" y="0px"
	 viewBox="0 0 64 64" enable-background="new 0 0 64 64" xml:space="preserve">
<path d="M43.8,8.2H20.4c-6.6,0-12,5.4-12,12v4.5H5.7v3.5h2.7V36H5.7v3.5h2.7v4.2c0,6.6,5.4,12,12,12h23.3c6.6,0,12-5.4,12-12V20.2
	C55.8,13.6,50.4,8.2,43.8,8.2z M52.8,43.8c0,5-4,9-9,9H20.4c-5,0-9-4-9-9v-4.2h2.9V36h-2.9v-7.7h2.9v-3.5h-2.9v-4.5c0-5,4-9,9-9
	h23.3c5,0,9,4,9,9V43.8z"/>
<path fill="#231F20" d="M43.4,22.7l-3,0.1l0.1,3.9c-1.8-2.8-4.9-4.7-8.5-4.7c-4.8,0-8.8,3.4-9.8,7.8h3.1c0.9-2.8,3.6-4.8,6.7-4.8
	c2.6,0,4.9,1.4,6.1,3.6l-4.2,0.1l0.1,3l9.6-0.2L43.4,22.7z"/>
<path fill="#231F20" d="M38.7,34.2c-0.9,2.8-3.6,4.8-6.7,4.8c-2.6,0-4.9-1.5-6.1-3.6l4.2-0.1l-0.1-3l-9.6,0.2l0.2,8.7l3-0.1
	l-0.1-3.9c1.8,2.8,4.9,4.7,8.5,4.7c4.8,0,8.8-3.4,9.8-7.8H38.7z"/>
</svg>
