<?xml version="1.0" encoding="utf-8"?>
<!-- Generator: Adobe Illustrator 18.0.0, SVG Export Plug-In . SVG Version: 6.00 Build 0)  -->
<!DOCTYPE svg PUBLIC "-//W3C//DTD SVG 1.1//EN" "http://www.w3.org/Graphics/SVG/1.1/DTD/svg11.dtd">
<svg version="1.1" id="Layer_1" xmlns="http://www.w3.org/2000/svg" xmlns:xlink="http://www.w3.org/1999/xlink" x="0px" y="0px"
	 viewBox="0 0 64 64" enable-background="new 0 0 64 64" xml:space="preserve">
<path fill="#231F20" d="M32.1,11.2c11.4,0,20.8,9.3,20.8,20.8s-9.3,20.8-20.8,20.8S11.4,43.4,11.4,32S20.7,11.2,32.1,11.2 M32.1,8.2
	C19,8.2,8.4,18.9,8.4,32S19,55.8,32.1,55.8S55.9,45.1,55.9,32S45.3,8.2,32.1,8.2L32.1,8.2z"/>
<circle fill="#231F20" cx="32" cy="31.3" r="3.9"/>
<path fill="#231F20" d="M33.6,44.8h-3.1c-1.9,0-3.5-1.6-3.5-3.5v-2.3c0-1.9,0.9-3.5,2.8-3.5c1.4,0,3.1,0,4.6,0
	c1.9,0,2.8,1.6,2.8,3.5v2.3C37,43.2,35.5,44.8,33.6,44.8z"/>
</svg>
