<?xml version="1.0" encoding="utf-8"?>
<!-- Generator: Adobe Illustrator 18.0.0, SVG Export Plug-In . SVG Version: 6.00 Build 0)  -->
<!DOCTYPE svg PUBLIC "-//W3C//DTD SVG 1.1//EN" "http://www.w3.org/Graphics/SVG/1.1/DTD/svg11.dtd">
<svg version="1.1" id="Layer_1" xmlns="http://www.w3.org/2000/svg" xmlns:xlink="http://www.w3.org/1999/xlink" x="0px" y="0px"
	 viewBox="0 0 64 64" enable-background="new 0 0 64 64" xml:space="preserve">
<g>
	<path fill="#231F20" d="M53.7,24h-3.2c1,2.5,1.6,5.1,1.6,8c0,11.4-9.3,20.8-20.7,20.8c-11.4,0-20.8-9.3-20.8-20.8
		s9.3-20.8,20.8-20.8c2.8,0,5.5,0.6,8,1.6V9.6c-2.5-0.9-5.2-1.4-8-1.4C18.2,8.2,7.6,18.9,7.6,32s10.6,23.8,23.8,23.8
		c13.1,0,23.7-10.6,23.7-23.8C55.1,29.2,54.6,26.5,53.7,24z"/>
</g>
<g>
	<rect x="42.8" y="14.6" width="8.6" height="3.5"/>
</g>
<rect x="14.3" y="21.4" fill="none" width="32.1" height="21.2"/>
<text transform="matrix(1 0 0 1 17.5516 42.1694)"><tspan x="0" y="0" font-family="'Oxygen-Bold'" font-size="28">1</tspan><tspan x="9.8" y="0" font-family="'Oxygen-Bold'" font-size="28">8</tspan></text>
</svg>
