<?xml version="1.0" encoding="utf-8"?>
<!-- Generator: Adobe Illustrator 18.0.0, SVG Export Plug-In . SVG Version: 6.00 Build 0)  -->
<!DOCTYPE svg PUBLIC "-//W3C//DTD SVG 1.1//EN" "http://www.w3.org/Graphics/SVG/1.1/DTD/svg11.dtd">
<svg version="1.1" id="Layer_1" xmlns="http://www.w3.org/2000/svg" xmlns:xlink="http://www.w3.org/1999/xlink" x="0px" y="0px"
	 viewBox="0 0 64 64" enable-background="new 0 0 64 64" xml:space="preserve">
<g>
	<path fill="#231F20" d="M58.5,15.4l-2.7,2.8C55,12.4,50,7.8,43.9,7.8H20.6c-6.6,0-12,5.4-12,12v0.8h3v-0.8c0-5,4-9,9-9h23.3
		c4.3,0,7.8,3,8.8,7l-3-2.8l-2.1,2.2l6.9,6.7l6-6.3L58.5,15.4z"/>
	<path fill="#231F20" d="M52.9,41.6v1.8c0,5-4,9-9,9H20.6c-4.1,0-7.6-2.8-8.7-6.6l2.4,2.3l2.1-2.2l-6.9-6.7l-6,6.3l2.2,2.1l3.1-3.2
		c0.5,6.2,5.7,11,12,11h23.3c6.6,0,12-5.4,12-12v-1.8H52.9z"/>
</g>
<g>
	<polyline fill="#231F20" points="36.7,29.7 31,39.3 25.4,36 31.2,26.4 36.7,29.7 	"/>
	<polygon fill="#231F20" points="38.8,29.2 30.7,24.3 23.4,36.5 31.5,41.4 38.8,29.2 	"/>
	<g>
		<path fill="#231F20" d="M39.3,24.7c0.1,0.1,0.2,0.3,0.1,0.4l-0.8,1.3l-5.5-3.3l0.8-1.3c0.1-0.1,0.3-0.2,0.4-0.1L39.3,24.7
			 M40.1,23.5l-5-3c-0.8-0.5-1.9-0.2-2.5,0.6l-1.5,2.6l8.1,4.8l1.5-2.6C41.2,25.1,40.9,24,40.1,23.5L40.1,23.5z"/>
	</g>
	<polyline fill="#231F20" points="27.4,41.5 25.7,41.9 25.3,40.2 27.4,41.5 	"/>
	<polygon fill="#231F20" points="31.2,42 23,37.1 24.6,43.8 31.2,42 	"/>
</g>
</svg>
