<?xml version="1.0" encoding="utf-8"?>
<!-- Generator: Adobe Illustrator 18.0.0, SVG Export Plug-In . SVG Version: 6.00 Build 0)  -->
<!DOCTYPE svg PUBLIC "-//W3C//DTD SVG 1.1//EN" "http://www.w3.org/Graphics/SVG/1.1/DTD/svg11.dtd">
<svg version="1.1" id="Layer_1" xmlns="http://www.w3.org/2000/svg" xmlns:xlink="http://www.w3.org/1999/xlink" x="0px" y="0px"
	 viewBox="0 0 64 64" enable-background="new 0 0 64 64" xml:space="preserve">
<path fill="#231F20" d="M37.1,22.6H25.9c-3.5,0-6.4,2.9-6.4,6.4v7.3c0,1.2,0.4,2.4,1,3.4c0.1,0.1,0.2,0.2,0.2,0.3l-1.2,5.8l5.2-3.2
	c0.4,0.1,0.8,0.1,1.2,0.1h11.2c3.5,0,6.4-2.9,6.4-6.4V29C43.5,25.5,40.6,22.6,37.1,22.6z M40.5,36.3c0,1.9-1.5,3.4-3.4,3.4H25.9
	c-0.8,0-1.5-0.2-2.1-0.7c-0.3-0.3-0.6-0.6-0.8-0.9c-0.3-0.5-0.5-1.2-0.5-1.8V29c0-1.9,1.5-3.4,3.4-3.4h11.2c1.9,0,3.4,1.5,3.4,3.4
	V36.3z"/>
<g>
	<path d="M44.7,20.4l0.5,0.7c-2,1.5-4.1,3.7-6.5,6.8c-2.4,3.1-4.2,5.9-5.5,8.6l-1,0.7c-0.8,0.6-1.4,1-1.7,1.3
		c-0.1-0.4-0.4-1.1-0.8-2.1l-0.4-0.9c-0.5-1.3-1.1-2.2-1.5-2.8c-0.5-0.6-1-1-1.6-1.2c1-1,1.9-1.6,2.7-1.6c0.7,0,1.5,1,2.3,2.9l0.4,1
		c1.5-2.6,3.5-5.1,5.9-7.6C40,23.6,42.4,21.8,44.7,20.4z"/>
</g>
<g>
	<path fill="#231F20" d="M58.2,16.5l-2.7,2.8c-0.8-5.8-5.8-10.4-11.9-10.4H20.3c-6.6,0-12,5.4-12,12v0.8h3v-0.8c0-5,4-9,9-9h23.3
		c4.3,0,7.8,3,8.8,7l-3-2.8l-2.1,2.2l6.9,6.7l6-6.3L58.2,16.5z"/>
	<path fill="#231F20" d="M52.6,42.7v1.8c0,5-4,9-9,9H20.3c-4.1,0-7.6-2.8-8.7-6.6l2.4,2.3l2.1-2.2l-6.9-6.7l-6,6.3l2.2,2.1l3.1-3.2
		c0.5,6.2,5.7,11,12,11h23.3c6.6,0,12-5.4,12-12v-1.8H52.6z"/>
</g>
</svg>
