<?xml version="1.0" encoding="utf-8"?>
<!-- Generator: Adobe Illustrator 18.0.0, SVG Export Plug-In . SVG Version: 6.00 Build 0)  -->
<!DOCTYPE svg PUBLIC "-//W3C//DTD SVG 1.1//EN" "http://www.w3.org/Graphics/SVG/1.1/DTD/svg11.dtd">
<svg version="1.1" id="Layer_1" xmlns="http://www.w3.org/2000/svg" xmlns:xlink="http://www.w3.org/1999/xlink" x="0px" y="0px"
	 viewBox="0 0 64 64" enable-background="new 0 0 64 64" xml:space="preserve">
<path fill="#231F20" d="M32,11.2c11.4,0,20.8,9.3,20.8,20.8S43.4,52.8,32,52.8S11.2,43.4,11.2,32S20.6,11.2,32,11.2 M32,8.2
	C18.9,8.2,8.2,18.9,8.2,32S18.9,55.8,32,55.8S55.8,45.1,55.8,32S45.1,8.2,32,8.2L32,8.2z"/>
<path fill="#231F20" d="M37.7,30.7c1.9,0,3.4,1.5,3.4,3.4v7.3c0,1.9-1.5,3.4-3.4,3.4H26.6c-1.9,0-3.4-1.5-3.4-3.4v-7.3
	c0-1.9,1.5-3.4,3.4-3.4H37.7 M37.7,27.7H26.6c-3.5,0-6.4,2.9-6.4,6.4v7.3c0,3.5,2.9,6.4,6.4,6.4h11.2c3.5,0,6.4-2.9,6.4-6.4v-7.3
	C44.2,30.6,41.3,27.7,37.7,27.7L37.7,27.7z"/>
<g>
	<path fill="#231F20" d="M27.6,28.7h-3v-5.2c0-4.3,3.5-7.8,7.8-7.8s7.8,3.5,7.8,7.8v1.1h-3v-1.1c0-2.6-2.2-4.8-4.8-4.8
		s-4.8,2.2-4.8,4.8V28.7z"/>
</g>
<path fill="#231F20" d="M34.3,36.5c0-1.2-1-2.3-2.3-2.3s-2.3,1-2.3,2.3c0,1,0.6,1.8,1.4,2.1l-1,2.6h4.1L33,38.6
	C33.7,38.2,34.3,37.4,34.3,36.5z"/>
</svg>
