<?xml version="1.0" encoding="utf-8"?>
<!-- Generator: Adobe Illustrator 18.0.0, SVG Export Plug-In . SVG Version: 6.00 Build 0)  -->
<!DOCTYPE svg PUBLIC "-//W3C//DTD SVG 1.1//EN" "http://www.w3.org/Graphics/SVG/1.1/DTD/svg11.dtd">
<svg version="1.1" id="Layer_1" xmlns="http://www.w3.org/2000/svg" xmlns:xlink="http://www.w3.org/1999/xlink" x="0px" y="0px"
	 viewBox="0 0 64 64" enable-background="new 0 0 64 64" xml:space="preserve">
<path fill="#231F20" d="M52.7,11.2v41.5H11.3V11.2H52.7 M55.7,8.2H8.3v47.5h47.3V8.2L55.7,8.2z"/>
<path fill="#231F20" d="M35.6,20.4c0.8,0,1.4,0.5,1.4,1v4.5v0.6L31.8,30l-5.1-3.5v-0.6v-4.5c0-0.5,0.6-1,1.4-1h3.8H35.6 M35.6,17.4
	h-3.8h-3.8c-2.4,0-4.4,1.8-4.4,4v4.5c0,2.2,0,2.2,0,2.2l8.1,5.5l8.1-5.5c0,0,0,0,0-2.2v-4.5C40,19.2,38,17.4,35.6,17.4L35.6,17.4z"
	/>
<path fill="#231F20" d="M31.8,34.9l5.1,3.5V39v4.5c0,0.5-0.6,1-1.4,1h-3.8H28c-0.8,0-1.4-0.5-1.4-1V39v-0.6L31.8,34.9 M31.8,31.3
	l-8.1,5.5c0,0,0,0,0,2.2v4.5c0,2.2,2,4,4.4,4h3.8h3.8c2.4,0,4.4-1.8,4.4-4V39c0-2.2,0-2.2,0-2.2L31.8,31.3L31.8,31.3z"/>
<rect x="21.1" y="16.4" fill="#231F20" width="21.8" height="3"/>
<rect x="20.8" y="45.1" fill="#231F20" width="21.8" height="3"/>
<polygon fill="#231F20" points="31.8,37.3 24.6,41.9 24.6,45.9 38.8,45.9 38.8,41.9 "/>
<polygon fill="#231F20" points="31.6,27.1 38.9,22.6 38.9,18.6 24.7,18.6 24.7,22.5 "/>
</svg>
