<?xml version="1.0" encoding="utf-8"?>
<!-- Generator: Adobe Illustrator 18.0.0, SVG Export Plug-In . SVG Version: 6.00 Build 0)  -->
<!DOCTYPE svg PUBLIC "-//W3C//DTD SVG 1.1//EN" "http://www.w3.org/Graphics/SVG/1.1/DTD/svg11.dtd">
<svg version="1.1" id="Layer_1" xmlns="http://www.w3.org/2000/svg" xmlns:xlink="http://www.w3.org/1999/xlink" x="0px" y="0px"
	 viewBox="0 0 64 64" enable-background="new 0 0 64 64" xml:space="preserve">
<path fill="#231F20" d="M52.8,11v41.5H11.5V11H52.8 M55.8,8H8.5v47.5h47.3V8L55.8,8z"/>
<path fill="#231F20" d="M35.8,20.2c0.8,0,1.4,0.5,1.4,1v4.5v0.6L32,29.8l-5.1-3.5v-0.6v-4.5c0-0.5,0.6-1,1.4-1H32H35.8 M35.8,17.2
	H32h-3.8c-2.4,0-4.4,1.8-4.4,4v4.5c0,2.2,0,2.2,0,2.2l8.1,5.5l8.1-5.5c0,0,0,0,0-2.2v-4.5C40.1,19,38.2,17.2,35.8,17.2L35.8,17.2z"
	/>
<path fill="#231F20" d="M31.9,34.6l5.1,3.5v0.6v4.5c0,0.5-0.6,1-1.4,1h-3.8h-3.8c-0.8,0-1.4-0.5-1.4-1v-4.5v-0.6L31.9,34.6 M31.9,31
	l-8.1,5.5c0,0,0,0,0,2.2v4.5c0,2.2,2,4,4.4,4h3.8h3.8c2.4,0,4.4-1.8,4.4-4v-4.5c0-2.2,0-2.2,0-2.2L31.9,31L31.9,31z"/>
<rect x="21.2" y="16.1" fill="#231F20" width="21.8" height="3"/>
<rect x="20.9" y="44.9" fill="#231F20" width="21.8" height="3"/>
<polygon fill="#231F20" points="31.7,27.7 27.8,25.3 27.8,22.6 28.8,22.6 28.8,24.7 32.2,26.9 "/>
<polygon fill="#231F20" points="36,41.6 35,41.6 35,39.5 31.6,37.3 32.1,36.5 36,38.9 "/>
</svg>
