<?xml version="1.0" encoding="utf-8"?>
<!-- Generator: Adobe Illustrator 18.0.0, SVG Export Plug-In . SVG Version: 6.00 Build 0)  -->
<!DOCTYPE svg PUBLIC "-//W3C//DTD SVG 1.1//EN" "http://www.w3.org/Graphics/SVG/1.1/DTD/svg11.dtd">
<svg version="1.1" id="Layer_1" xmlns="http://www.w3.org/2000/svg" xmlns:xlink="http://www.w3.org/1999/xlink" x="0px" y="0px"
	 viewBox="0 0 64 64" enable-background="new 0 0 64 64" xml:space="preserve">
<path fill="#231F20" d="M52.7,11.2v41.5H11.3V11.2H52.7 M55.7,8.2H8.3v47.5h47.3V8.2L55.7,8.2z"/>
<path fill="#231F20" d="M38.1,30.7c1.9,0,3.4,1.5,3.4,3.4v7.3c0,1.9-1.5,3.4-3.4,3.4H26.9c-1.9,0-3.4-1.5-3.4-3.4v-7.3
	c0-1.9,1.5-3.4,3.4-3.4H38.1 M38.1,27.7H26.9c-3.5,0-6.4,2.9-6.4,6.4v7.3c0,3.5,2.9,6.4,6.4,6.4h11.2c3.5,0,6.4-2.9,6.4-6.4v-7.3
	C44.5,30.6,41.6,27.7,38.1,27.7L38.1,27.7z"/>
<g>
	<path fill="#231F20" d="M27.6,28.7h-3v-1.5c0-4.3,3.5-7.8,7.8-7.8c4.3,0,7.8,3.5,7.8,7.8v1.1h-3v-1.1c0-2.6-2.2-4.8-4.8-4.8
		c-2.6,0-4.8,2.2-4.8,4.8V28.7z"/>
</g>
<path fill="#231F20" d="M34.6,36.5c0-1.2-1-2.3-2.3-2.3c-1.2,0-2.3,1-2.3,2.3c0,1,0.6,1.8,1.4,2.1l-1,2.6h4.1l-1.3-2.7
	C34.1,38.2,34.6,37.4,34.6,36.5z"/>
</svg>
