<?xml version="1.0" encoding="utf-8"?>
<!-- Generator: Adobe Illustrator 18.0.0, SVG Export Plug-In . SVG Version: 6.00 Build 0)  -->
<!DOCTYPE svg PUBLIC "-//W3C//DTD SVG 1.1//EN" "http://www.w3.org/Graphics/SVG/1.1/DTD/svg11.dtd">
<svg version="1.1" id="Layer_1" xmlns="http://www.w3.org/2000/svg" xmlns:xlink="http://www.w3.org/1999/xlink" x="0px" y="0px"
	 viewBox="0 0 64 64" enable-background="new 0 0 64 64" xml:space="preserve">
<path fill="#231F20" d="M52.7,11.5V53H11.3V11.5H52.7 M55.7,8.5H8.3V56h47.3V8.5L55.7,8.5z"/>
<path fill="#231F20" d="M37.6,30.9c1.9,0,3.4,1.5,3.4,3.4v7.3c0,1.9-1.5,3.4-3.4,3.4H26.4c-1.9,0-3.4-1.5-3.4-3.4v-7.3
	c0-1.9,1.5-3.4,3.4-3.4H37.6 M37.6,27.9H26.4c-3.5,0-6.4,2.9-6.4,6.4v7.3c0,3.5,2.9,6.4,6.4,6.4h11.2c3.5,0,6.4-2.9,6.4-6.4v-7.3
	C44,30.8,41.1,27.9,37.6,27.9L37.6,27.9z"/>
<g>
	<path fill="#231F20" d="M27.4,28.9h-3v-5.2c0-4.3,3.5-7.8,7.8-7.8c4.3,0,7.8,3.5,7.8,7.8v1.1h-3v-1.1c0-2.6-2.2-4.8-4.8-4.8
		c-2.6,0-4.8,2.2-4.8,4.8V28.9z"/>
</g>
<path fill="#231F20" d="M34.1,36.8c0-1.2-1-2.3-2.3-2.3s-2.3,1-2.3,2.3c0,1,0.6,1.8,1.4,2.1l-1,2.6h4.1l-1.3-2.7
	C33.6,38.4,34.1,37.7,34.1,36.8z"/>
</svg>
