<?xml version="1.0" encoding="utf-8"?>
<!-- Generator: Adobe Illustrator 18.0.0, SVG Export Plug-In . SVG Version: 6.00 Build 0)  -->
<!DOCTYPE svg PUBLIC "-//W3C//DTD SVG 1.1//EN" "http://www.w3.org/Graphics/SVG/1.1/DTD/svg11.dtd">
<svg version="1.1" id="Layer_1" xmlns="http://www.w3.org/2000/svg" xmlns:xlink="http://www.w3.org/1999/xlink" x="0px" y="0px"
	 viewBox="0 0 64 64" enable-background="new 0 0 64 64" xml:space="preserve">
<g>
	<path d="M32.5,23.1C32.5,23.1,32.5,23.1,32.5,23.1c1,0.1,1.6,0.9,1.7,1.9c0.1,1.4-0.7,2.5-0.7,3.9c0,0.6,0.1,0.9,0.5,0.9
		c0.1,0,0.2,0,0.3-0.1c0.7-0.2,1.5-0.3,2.2-0.3c0.3,0,0.7,0,1,0c1.4,0,2.1,0.9,1.8,2.3c-0.1,0.3,0,0.4,0.1,0.6
		c0.4,0.5,0.4,1,0.1,1.6c-0.2,0.3-0.3,0.6-0.2,1c0.1,0.5,0.2,1-0.2,1.4c-0.5,0.5-0.6,1-0.6,1.7c0,0.2-0.1,0.3-0.2,0.4
		c-0.6,0.7-1.3,1.1-2.2,1.2c-0.2,0-0.4,0.1-0.6,0.2c-0.4,0.3-0.9,0.4-1.5,0.4c-0.6,0-1.2-0.1-1.6-0.4c-0.2-0.1-0.4-0.2-0.7-0.2
		c0,0,0,0,0,0c-0.2,0-0.3,0-0.5,0c-1.1,0-2.1-0.1-3.2-0.4c-0.1,0-0.1,0-0.2,0c0,0-0.1,0-0.1,0c-0.5,0.3-1,0.4-1.5,0.4
		c-0.4,0-0.9,0-1.3,0c0,0-0.1,0-0.1,0c0,0,0,0,0,0c-0.7,0-1.2-0.5-1.2-1.2c0-1.9,0-3.8,0-5.7c0-0.8,0.4-1.2,1.2-1.2c0.3,0,0.7,0,1,0
		c0.3,0,0.7,0,1,0c0.5,0,0.8,0.1,1,0.4l0-0.1c0.4-0.5,0.8-1,1.2-1.5c1.5-1.9,2.8-3.9,3-6.4C31.8,23.4,32.1,23.1,32.5,23.1
		 M32.5,20.1C32.5,20.1,32.5,20.1,32.5,20.1c-1.9,0-3.5,1.6-3.7,3.5c-0.1,1.7-1,3.1-2.4,4.8c0,0,0,0.1-0.1,0.1c-0.2,0-0.5,0-0.7,0
		c-0.4,0-0.7,0-1.1,0c-2.4,0.1-4,1.8-4,4.2c0,0.6,0,1.3,0,1.9c0,1.2,0,2.5,0,3.7c0,1.2,0.4,2.3,1.2,3.1c0.8,0.8,1.8,1.2,3,1.2
		c0,0,0.1,0,0.1,0l0.1,0c0.2,0,0.3,0,0.5,0c0.3,0,0.5,0,0.8,0c0.7,0,1.4-0.1,2-0.3c1,0.2,2,0.3,3,0.3c0,0,0.1,0,0.1,0
		c1,0.5,2.1,0.6,2.7,0.6c0.8,0,1.8-0.1,2.8-0.6c1.5-0.2,2.9-1,3.9-2.2c0.6-0.8,0.8-1.6,0.9-2.2c0.9-1.1,0.9-2.4,0.8-3.2
		c0.5-1.2,0.5-2.4,0-3.6c0.1-1.2-0.3-2.3-0.9-3.2c-0.9-1.1-2.2-1.7-3.8-1.8l-0.2,0c-0.1,0-0.2,0-0.3,0c0.1-0.5,0.1-1.1,0.1-1.7
		c-0.2-2.5-1.8-4.3-4.2-4.6C32.8,20.1,32.6,20.1,32.5,20.1L32.5,20.1L32.5,20.1z"/>
</g>
<g>
	<path fill="#231F20" d="M58.5,15.9l-2.7,2.8C55,12.8,50,8.2,43.9,8.2H20.6c-6.6,0-12,5.4-12,12v0.8h3v-0.8c0-5,4-9,9-9h23.3
		c4.3,0,7.8,3,8.8,7l-3-2.8l-2.1,2.2l6.9,6.7l6-6.3L58.5,15.9z"/>
	<path fill="#231F20" d="M52.9,42v1.8c0,5-4,9-9,9H20.6c-4.1,0-7.6-2.8-8.7-6.6l2.4,2.3l2.1-2.2l-6.9-6.7l-6,6.3l2.2,2.1l3.1-3.2
		c0.5,6.2,5.7,11,12,11h23.3c6.6,0,12-5.4,12-12V42H52.9z"/>
</g>
</svg>
