<?xml version="1.0" encoding="utf-8"?>
<!-- Generator: Adobe Illustrator 18.0.0, SVG Export Plug-In . SVG Version: 6.00 Build 0)  -->
<!DOCTYPE svg PUBLIC "-//W3C//DTD SVG 1.1//EN" "http://www.w3.org/Graphics/SVG/1.1/DTD/svg11.dtd">
<svg version="1.1" id="Layer_1" xmlns="http://www.w3.org/2000/svg" xmlns:xlink="http://www.w3.org/1999/xlink" x="0px" y="0px"
	 viewBox="0 0 64 64" enable-background="new 0 0 64 64" xml:space="preserve">
<path fill="#231F20" d="M37.7,30.7c1.9,0,3.4,1.5,3.4,3.4v7.3c0,1.9-1.5,3.4-3.4,3.4H26.6c-1.9,0-3.4-1.5-3.4-3.4v-7.3
	c0-1.9,1.5-3.4,3.4-3.4H37.7 M37.7,27.7H26.6c-3.5,0-6.4,2.9-6.4,6.4v7.3c0,3.5,2.9,6.4,6.4,6.4h11.2c3.5,0,6.4-2.9,6.4-6.4v-7.3
	C44.2,30.6,41.3,27.7,37.7,27.7L37.7,27.7z"/>
<g>
	<path fill="#231F20" d="M27.6,28.7h-3v-5.2c0-4.3,3.5-7.8,7.8-7.8c4.3,0,7.8,3.5,7.8,7.8v1.1h-3v-1.1c0-2.6-2.2-4.8-4.8-4.8
		c-2.6,0-4.8,2.2-4.8,4.8V28.7z"/>
</g>
<path fill="#231F20" d="M34.2,36.5c0-1.2-1-2.3-2.3-2.3s-2.3,1-2.3,2.3c0,1,0.6,1.8,1.4,2.1l-1,2.6h4.1L33,38.6
	C33.7,38.2,34.2,37.4,34.2,36.5z"/>
<path fill="#231F20" d="M32.4,11.3l21.2,7.3v16.5c0,17-20,17.8-21.3,17.8c-0.5,0-5.7-0.2-10.8-2.5c-6.8-3-10.2-8.1-10.2-15.3V18.6
	L32.4,11.3 M32.4,8.1L8.2,16.4v18.7c0,20.4,24,20.8,24,20.8s24.3-0.4,24.3-20.8V16.4L32.4,8.1L32.4,8.1z"/>
</svg>
