<?xml version="1.0" encoding="utf-8"?>
<!-- Generator: Adobe Illustrator 18.0.0, SVG Export Plug-In . SVG Version: 6.00 Build 0)  -->
<!DOCTYPE svg PUBLIC "-//W3C//DTD SVG 1.1//EN" "http://www.w3.org/Graphics/SVG/1.1/DTD/svg11.dtd">
<svg version="1.1" id="Layer_1" xmlns="http://www.w3.org/2000/svg" xmlns:xlink="http://www.w3.org/1999/xlink" x="0px" y="0px"
	 viewBox="0 0 64 64" enable-background="new 0 0 64 64" xml:space="preserve">
<g>
	<path fill="#231F20" d="M58.5,15.5l-2.7,2.8C55,12.5,50,7.9,43.9,7.9H20.6c-6.6,0-12,5.4-12,12v0.8h3v-0.8c0-5,4-9,9-9h23.3
		c4.3,0,7.8,3,8.8,7l-3-2.8l-2.1,2.2l6.9,6.7l6-6.3L58.5,15.5z"/>
	<path fill="#231F20" d="M52.9,41.7v1.8c0,5-4,9-9,9H20.6c-4.1,0-7.6-2.8-8.7-6.6l2.4,2.3l2.1-2.2l-6.9-6.7l-6,6.3l2.2,2.1l3.1-3.2
		c0.5,6.2,5.7,11,12,11h23.3c6.6,0,12-5.4,12-12v-1.8H52.9z"/>
</g>
<path fill="#231F20" d="M43.4,22.4l-3,0.1l0.1,3.9c-1.8-2.8-4.9-4.7-8.5-4.7c-4.8,0-8.8,3.4-9.8,7.8h3.1c0.9-2.8,3.6-4.8,6.7-4.8
	c2.6,0,4.9,1.4,6.1,3.6l-4.2,0.1l0.1,3l9.6-0.2L43.4,22.4z"/>
<path fill="#231F20" d="M38.7,33.9c-0.9,2.8-3.6,4.8-6.7,4.8c-2.6,0-4.9-1.5-6.1-3.6l4.2-0.1l-0.1-3l-9.6,0.2l0.2,8.7l3-0.1
	l-0.1-3.9c1.8,2.8,4.9,4.7,8.5,4.7c4.8,0,8.8-3.4,9.8-7.8H38.7z"/>
</svg>
