<?xml version="1.0" encoding="utf-8"?>
<!-- Generator: Adobe Illustrator 18.0.0, SVG Export Plug-In . SVG Version: 6.00 Build 0)  -->
<!DOCTYPE svg PUBLIC "-//W3C//DTD SVG 1.1//EN" "http://www.w3.org/Graphics/SVG/1.1/DTD/svg11.dtd">
<svg version="1.1" id="Layer_1" xmlns="http://www.w3.org/2000/svg" xmlns:xlink="http://www.w3.org/1999/xlink" x="0px" y="0px"
	 viewBox="0 0 64 64" enable-background="new 0 0 64 64" xml:space="preserve">
<path fill="#231F20" d="M52.7,11.2v41.5H11.3V11.2H52.7 M55.7,8.2H8.3v47.5h47.3V8.2L55.7,8.2z"/>
<g>
	<path fill="#231F20" d="M34.1,21.6c0.1,0,0.3,0,0.4,0.1l5,3c0.2,0.1,0.3,0.3,0.4,0.5c0.1,0.2,0,0.4-0.1,0.6l-1,1.7l-6.4-3.8l1-1.7
		C33.6,21.8,33.9,21.6,34.1,21.6 M34.1,20.6c-0.6,0-1.2,0.3-1.5,0.9l-1.5,2.6l8.1,4.8l1.5-2.6c0.5-0.8,0.2-1.9-0.6-2.5l-5-3
		C34.8,20.7,34.4,20.6,34.1,20.6L34.1,20.6z"/>
	<path fill="#231F20" d="M31,26.1l6.4,3.8l-6.3,10.5l-6.4-3.8L31,26.1 M30.7,24.8L23.4,37l8.1,4.8l7.3-12.2L30.7,24.8L30.7,24.8z"/>
	<path fill="#231F20" d="M24.5,39.6l4.1,2.4L25.3,43L24.5,39.6 M23,37.6l1.5,6.6l6.6-1.8L23,37.6L23,37.6z"/>
</g>
</svg>
