<?xml version="1.0" encoding="utf-8"?>
<!-- Generator: Adobe Illustrator 18.0.0, SVG Export Plug-In . SVG Version: 6.00 Build 0)  -->
<!DOCTYPE svg PUBLIC "-//W3C//DTD SVG 1.1//EN" "http://www.w3.org/Graphics/SVG/1.1/DTD/svg11.dtd">
<svg version="1.1" id="Layer_1" xmlns="http://www.w3.org/2000/svg" xmlns:xlink="http://www.w3.org/1999/xlink" x="0px" y="0px"
	 viewBox="0 0 64 64" enable-background="new 0 0 64 64" xml:space="preserve">
<g>
	<path fill="none" d="M44.1,33.1c-0.6,0.4-1.2,0.8-1.7,1.3v0C42.9,34,43.5,33.5,44.1,33.1z"/>
	<rect x="20.5" y="23.4" fill="#231F20" width="21.8" height="3"/>
	<rect x="20.5" y="28.3" fill="#231F20" width="21.8" height="3"/>
	<path fill="#231F20" d="M42.3,33.2H20.5v3H39c0,0,0,0,0.1-0.1C40.1,35,41.2,34,42.3,33.2z"/>
	<path fill="#231F20" d="M42.3,34.5L42.3,34.5c-0.4,0.3-0.8,0.6-1.1,1C41.6,35.1,42,34.8,42.3,34.5z"/>
	<path fill="#231F20" d="M39.8,41.1h2.5v-3h-0.3c-0.2,0.3-0.5,0.6-0.7,0.9C40.8,39.7,40.3,40.4,39.8,41.1z"/>
	<path fill="#231F20" d="M32.7,38.9c1,0,1.8,1,2.4,2c0.7-1,1.4-1.9,2.2-2.9H20.5v3h8.7l0.6-0.6C30.8,39.4,31.7,38.9,32.7,38.9z"/>
	<path d="M45.5,32.3c-0.5,0.3-0.9,0.6-1.4,0.9c-0.6,0.4-1.2,0.8-1.7,1.3c-0.4,0.3-0.8,0.6-1.1,1c-0.3,0.2-0.5,0.5-0.8,0.8
		c-0.2,0.2-0.4,0.4-0.7,0.6c-0.4,0.4-0.8,0.8-1.1,1.2c-0.9,1-1.7,2-2.4,3c-0.5,0.6-0.9,1.3-1.3,1.9l-0.3-0.8
		c-0.2-0.5-0.4-0.8-0.6-1.1c-0.5-0.8-0.9-1.2-1.3-1.2c-0.6,0-1.3,0.4-2.1,1.2c0,0-0.1,0.1-0.1,0.1c0.5,0.2,0.9,0.5,1.3,1
		c0.4,0.5,0.8,1.3,1.2,2.3l0.3,0.7c0.3,0.8,0.5,1.4,0.6,1.7c0.2-0.2,0.7-0.6,1.4-1.1l0.8-0.6c0.6-1.3,1.5-2.7,2.5-4.2
		c0.6-0.9,1.3-1.8,2-2.8c0.1-0.1,0.1-0.2,0.2-0.3c1.9-2.4,3.6-4.1,5.1-5.3L45.5,32.3z"/>
</g>
<g>
	<path fill="#231F20" d="M58.5,15.9l-2.7,2.8C55,12.8,50,8.2,43.9,8.2H20.6c-6.6,0-12,5.4-12,12v0.8h3v-0.8c0-5,4-9,9-9h23.3
		c4.3,0,7.8,3,8.8,7l-3-2.8l-2.1,2.2l6.9,6.7l6-6.3L58.5,15.9z"/>
	<path fill="#231F20" d="M52.9,42v1.8c0,5-4,9-9,9H20.6c-4.1,0-7.6-2.8-8.7-6.6l2.4,2.3l2.1-2.2l-6.9-6.7l-6,6.3l2.2,2.1l3.1-3.2
		c0.5,6.2,5.7,11,12,11h23.3c6.6,0,12-5.4,12-12V42H52.9z"/>
</g>
</svg>
