<?xml version="1.0" encoding="utf-8"?>
<!-- Generator: Adobe Illustrator 18.0.0, SVG Export Plug-In . SVG Version: 6.00 Build 0)  -->
<!DOCTYPE svg PUBLIC "-//W3C//DTD SVG 1.1//EN" "http://www.w3.org/Graphics/SVG/1.1/DTD/svg11.dtd">
<svg version="1.1" id="Layer_1" xmlns="http://www.w3.org/2000/svg" xmlns:xlink="http://www.w3.org/1999/xlink" x="0px" y="0px"
	 viewBox="0 0 64 64" enable-background="new 0 0 64 64" xml:space="preserve">
<polygon fill="#231F20" points="54,24.2 47.1,17.6 49.2,15.4 53.9,20 57.9,15.9 60.1,18 "/>
<g>
	<rect x="20.8" y="23.4" fill="#231F20" width="21.8" height="3"/>
	<rect x="20.8" y="28.3" fill="#231F20" width="21.8" height="3"/>
	<g>
		<path fill="#231F20" d="M41.4,36.2h1.3v-3h-2.2l0.1,0.6C40.7,34.6,41,35.4,41.4,36.2z"/>
		<path fill="#231F20" d="M39.8,33.5l0.3-0.3H20.8v3h16.6C37.7,35.4,38.4,34.5,39.8,33.5z"/>
		<path fill="#231F20" d="M39.7,40.9l-0.2-0.2c-0.9-1-1.5-1.8-1.8-2.6H20.8v3h18.7c0,0,0,0,0.1-0.1L39.7,40.9z"/>
		<path d="M44.5,41.5l-0.7-0.7l0.7-0.9c0.6-0.8,1.3-1.5,2.1-2.1c0.7-0.5,1.3-0.8,1.7-0.9c-0.6-1.2-1.2-1.2-1.5-1.2
			c-1.1,0-2.3,0.9-3.7,2.7l-0.4,0.5l-0.3,0.4l-0.8-1c-0.1-0.1-0.1-0.1-0.2-0.2c-0.5-0.6-0.8-1.2-1.1-1.9c-0.2-0.5-0.4-1-0.5-1.5
			c-0.7,0.6-1.1,1.1-1.2,1.5c-0.1,0.2-0.1,0.4-0.1,0.5c0,0.4,0.1,0.9,0.4,1.4c0.3,0.6,0.8,1.2,1.5,1.9l0.8,0.8l-0.2,0.2l-0.4,0.6
			c-1.4,1.7-2.6,2.6-3.8,2.9c0.8,1.1,1.5,1.6,2.2,1.6c0.4,0,1.4-0.4,3.1-3l0.5-0.8l1,1c1.9,1.7,2.8,2.1,3.3,2.1
			c0.6,0,1.2-0.6,1.9-1.7C47.2,43.5,45.8,42.8,44.5,41.5z"/>
	</g>
</g>
<g>
	<path fill="#231F20" d="M58.1,15.9l-2.7,2.8c-0.8-5.8-5.8-10.4-11.9-10.4H20.2c-6.6,0-12,5.4-12,12v0.8h3v-0.8c0-5,4-9,9-9h23.3
		c4.3,0,7.8,3,8.8,7l-3-2.8l-2.1,2.2l6.9,6.7l6-6.3L58.1,15.9z"/>
	<path fill="#231F20" d="M52.6,42v1.8c0,5-4,9-9,9H20.2c-4.1,0-7.6-2.8-8.7-6.6l2.4,2.3l2.1-2.2l-6.9-6.7l-6,6.3l2.2,2.1l3.1-3.2
		c0.5,6.2,5.7,11,12,11h23.3c6.6,0,12-5.4,12-12V42H52.6z"/>
</g>
</svg>
