<?xml version="1.0" encoding="utf-8"?>
<!-- Generator: Adobe Illustrator 18.0.0, SVG Export Plug-In . SVG Version: 6.00 Build 0)  -->
<!DOCTYPE svg PUBLIC "-//W3C//DTD SVG 1.1//EN" "http://www.w3.org/Graphics/SVG/1.1/DTD/svg11.dtd">
<svg version="1.1" id="Layer_1" xmlns="http://www.w3.org/2000/svg" xmlns:xlink="http://www.w3.org/1999/xlink" x="0px" y="0px"
	 viewBox="0 0 64 64" enable-background="new 0 0 64 64" xml:space="preserve">
<path fill="#231F20" d="M52.6,11.2v41.5H11.2V11.2H52.6 M55.6,8.2H8.2v47.5h47.3V8.2L55.6,8.2z"/>
<path fill="#231F20" d="M37.6,20.4H26.4c-3.5,0-6.4,2.9-6.4,6.4v7.3c0,1.2,0.4,2.4,1,3.4c0.1,0.1,0.2,0.2,0.2,0.3L20,43.6l5.2-3.2
	c0.4,0.1,0.8,0.1,1.2,0.1h11.2c3.5,0,6.4-2.9,6.4-6.4v-7.3C44,23.3,41.1,20.4,37.6,20.4z M41,34.1c0,1.9-1.5,3.4-3.4,3.4H26.4
	c-0.8,0-1.5-0.2-2.1-0.7c-0.3-0.3-0.6-0.6-0.8-0.9c-0.3-0.5-0.5-1.2-0.5-1.8v-7.3c0-1.9,1.5-3.4,3.4-3.4h11.2c1.9,0,3.4,1.5,3.4,3.4
	V34.1z"/>
</svg>
