<?xml version="1.0" encoding="utf-8"?>
<!-- Generator: Adobe Illustrator 18.0.0, SVG Export Plug-In . SVG Version: 6.00 Build 0)  -->
<!DOCTYPE svg PUBLIC "-//W3C//DTD SVG 1.1//EN" "http://www.w3.org/Graphics/SVG/1.1/DTD/svg11.dtd">
<svg version="1.1" id="Layer_1" xmlns="http://www.w3.org/2000/svg" xmlns:xlink="http://www.w3.org/1999/xlink" x="0px" y="0px"
	 viewBox="0 0 64 64" enable-background="new 0 0 64 64" xml:space="preserve">
<g>
	<polyline fill="#231F20" points="36.7,30.1 31,39.8 25.4,36.4 31.2,26.8 36.7,30.1 	"/>
	<polygon fill="#231F20" points="38.8,29.6 30.7,24.8 23.4,37 31.5,41.8 38.8,29.6 	"/>
	<g>
		<path fill="#231F20" d="M39.3,25.2c0.1,0.1,0.2,0.3,0.1,0.4l-0.8,1.3l-5.5-3.3l0.8-1.3c0.1-0.1,0.3-0.2,0.4-0.1L39.3,25.2
			 M40.1,23.9l-5-3c-0.8-0.5-1.9-0.2-2.5,0.6l-1.5,2.6l8.1,4.8l1.5-2.6C41.2,25.5,40.9,24.4,40.1,23.9L40.1,23.9z"/>
	</g>
	<polyline fill="#231F20" points="27.4,41.9 25.7,42.4 25.3,40.7 27.4,41.9 	"/>
	<polygon fill="#231F20" points="31.2,42.4 23,37.6 24.6,44.2 31.2,42.4 	"/>
</g>
<path fill="#231F20" d="M52.7,11.2v41.5H11.3V11.2H52.7 M55.7,8.2H8.3v47.5h47.3V8.2L55.7,8.2z"/>
</svg>
