<?xml version="1.0" encoding="utf-8"?>
<!-- Generator: Adobe Illustrator 18.0.0, SVG Export Plug-In . SVG Version: 6.00 Build 0)  -->
<!DOCTYPE svg PUBLIC "-//W3C//DTD SVG 1.1//EN" "http://www.w3.org/Graphics/SVG/1.1/DTD/svg11.dtd">
<svg version="1.1" id="Layer_1" xmlns="http://www.w3.org/2000/svg" xmlns:xlink="http://www.w3.org/1999/xlink" x="0px" y="0px"
	 viewBox="0 0 64 64" enable-background="new 0 0 64 64" xml:space="preserve">
<path fill="#231F20" d="M52.7,11.2v41.5H11.3V11.2H52.7 M55.7,8.2H8.3v47.5h47.3V8.2L55.7,8.2z"/>
<path fill="#231F20" d="M19.3,44.6l1.4-6.7c0-0.1-0.1-0.1-0.1-0.2c-0.7-1.1-1-2.4-1-3.6v-7.3c0-3.8,3.1-6.9,6.9-6.9h11.2
	c3.8,0,6.9,3.1,6.9,6.9v7.3c0,3.8-3.1,6.9-6.9,6.9H26.4c-0.3,0-0.7,0-1.1-0.1L19.3,44.6z M26.4,20.9c-3.3,0-5.9,2.7-5.9,5.9v7.3
	c0,1.1,0.3,2.2,0.9,3.1c0,0,0.1,0.1,0.1,0.1c0,0.1,0.1,0.1,0.1,0.2l0.1,0.2l-1,4.9l4.4-2.7l0.2,0c0.4,0.1,0.7,0.1,1.1,0.1h11.2
	c3.3,0,5.9-2.7,5.9-5.9v-7.3c0-3.3-2.7-5.9-5.9-5.9H26.4z M37.6,38H26.4c-0.9,0-1.7-0.3-2.4-0.8c-0.4-0.3-0.7-0.6-1-1.1
	c-0.4-0.6-0.6-1.3-0.6-2.1v-7.3c0-2.2,1.8-3.9,3.9-3.9h11.2c2.2,0,3.9,1.8,3.9,3.9v7.3C41.5,36.3,39.8,38,37.6,38z M26.4,23.9
	c-1.6,0-2.9,1.3-2.9,2.9v7.3c0,0.5,0.2,1.1,0.4,1.5c0.2,0.3,0.4,0.6,0.7,0.8c0.5,0.4,1.1,0.6,1.8,0.6h11.2c1.6,0,2.9-1.3,2.9-2.9
	v-7.3c0-1.6-1.3-2.9-2.9-2.9H26.4z"/>
</svg>
