<svg id="Layer_1" data-name="Layer 1" xmlns="http://www.w3.org/2000/svg" viewBox="0 0 458.94 362.03"><title>Logo</title><path d="M32.2,202.7A159.29,159.29,0,0,0,47.76,254a161.91,161.91,0,0,0,43.82,54.69q42.56,34.29,97.24,36.48a159.52,159.52,0,0,0,45.76-4.74A162.68,162.68,0,0,0,309,299.07q4.65-4.49,8.88-9.28l-18.13.09a151,151,0,1,1,43.3-137.68h13.26A158.23,158.23,0,0,0,350.42,129,164.66,164.66,0,0,0,265.13,33a161.73,161.73,0,0,0-58.52-15.35c-1.49-.1-3-0.28-4.47-0.42H187.5a6.87,6.87,0,0,1-1,.2A163.89,163.89,0,0,0,58.38,90.13a163.21,163.21,0,0,0-27.41,83,3.84,3.84,0,0,1-.19.76v14.64a7.11,7.11,0,0,1,.2.89C31.38,193.87,31.64,198.3,32.2,202.7Z"/><path d="M100.74,134.71a19.86,19.86,0,0,1,4.58-12.43,19.64,19.64,0,0,1,14.57-6.71,20,20,0,0,1,12.43,4.58A19.48,19.48,0,0,1,139,134.76a19.8,19.8,0,0,1-4.53,12.33A19.16,19.16,0,0,1,100.74,134.71Zm19.14,9.78a9.86,9.86,0,0,0,7.07-3.07,10,10,0,0,0,2.65-6.66,10.86,10.86,0,0,0-.62-3.43,9.86,9.86,0,0,0-9.1-6.29,10.14,10.14,0,0,0-6.82,2.81A9.73,9.73,0,0,0,119.89,144.49Z"/><path d="M171.74,116.45a21.12,21.12,0,0,1,6.5.68c5.31,1.61,8,6.35,8,11.65s-2.71,10.25-7.91,12a17.6,17.6,0,0,1-5.67.68h-3.54v11.7h-9.52V116.45h12.17ZM169.14,133H172a5.9,5.9,0,0,0,2.19-.26,3.73,3.73,0,0,0,2.65-3.85,3.83,3.83,0,0,0-2.6-3.9,5.87,5.87,0,0,0-2.13-.26h-2.91V133Z"/><path d="M227.72,124.62H216.53v5.51h11.18v8.64H216.59v6h11.24v8.38h-21V116.45h20.86v8.17Z"/><path d="M271.16,116.45h9.21v36.73h-8.22L258.31,133.1v20.08h-9.16V116.45h8.17c3.12,4.42,6.29,8.9,9.47,13.68,1.51,2.19,2.91,4.37,4.37,6.55V116.45Z"/><path d="M120,174.64a21.13,21.13,0,0,1,6.5.68c5.31,1.61,8,6.35,8,11.65s-2.71,10.25-7.91,12a17.6,17.6,0,0,1-5.67.68h-3.54v11.7h-9.52V174.64H120Zm-2.6,16.54h2.81a5.9,5.9,0,0,0,2.19-.26,3.73,3.73,0,0,0,2.65-3.85,3.83,3.83,0,0,0-2.6-3.9,5.87,5.87,0,0,0-2.13-.26h-2.91v8.27Z"/><path d="M169.08,174.64c3.49,0,6.4.16,9.26,2.39A12.32,12.32,0,0,1,183,187.17a11.91,11.91,0,0,1-5,10,18.94,18.94,0,0,1-3.28,1.61l8.9,12.54H172.26l-7.49-11.81v11.81h-9.31V174.64h13.63Zm-4.32,18.31h3a10.58,10.58,0,0,0,2.6-.36,5,5,0,0,0,3.33-5,5.21,5.21,0,0,0-.73-2.76c-1.14-1.87-3.07-2-5-2h-3.12v10.14Z"/><path d="M217.15,174.64v36.73h-9.36V174.64h9.36Z"/><path d="M246.12,174.64l8.43,22.06c0.52,1.4,1,2.86,1.56,4.27,0.68-2.13,1.46-4.27,2.19-6.4,1.25-3.43,2.55-6.87,3.85-10.25,1.2-3.23,2.39-6.45,3.54-9.68h9.52l-14.25,36.73h-10.3L236,174.64h10.14Z"/><path d="M321.46,211.36H310.63l-1.77-5.15H296.43l-1.72,5.15H284.21l14.72-36.93h7.65Zm-22.58-12.74h7.49l-3.85-11.55Z"/><path d="M361.31,188.37a12.83,12.83,0,0,0-.88-1.41,9.09,9.09,0,0,0-7.39-3.64,9.35,9.35,0,0,0-4,.83,9.48,9.48,0,0,0-5.77,8.84,9.94,9.94,0,0,0,.73,3.59,9.75,9.75,0,0,0,9,6,9.57,9.57,0,0,0,3.17-.52,10.7,10.7,0,0,0,4-2.81,15.85,15.85,0,0,0,1.14-1.72h10.2a26.06,26.06,0,0,1-1.82,4.53,19.07,19.07,0,0,1-12,9.47,18.84,18.84,0,0,1-4.58.52A19.17,19.17,0,0,1,337,203.61a17.57,17.57,0,0,1-3.17-10.35,19.4,19.4,0,0,1,9.52-16.91,19.11,19.11,0,0,1,9.57-2.5,18.88,18.88,0,0,1,12.12,4.37,19.23,19.23,0,0,1,6.45,10.14h-10.2Z"/><path d="M394.51,174.64l4.37,10.51c0.42,1,.83,2.13,1.2,3.17,0.62-1.61,1.3-3.23,2-4.79l3.75-8.9h9.73l-10.87,23v13.68h-9.42V197.84l-11-23.2h10.3Z"/><path d="M119.14,232.82a21.13,21.13,0,0,1,6.5.68c5.31,1.61,8,6.35,8,11.65s-2.71,10.25-7.91,12a17.6,17.6,0,0,1-5.67.68h-3.54v11.7H107V232.82h12.17Zm-2.6,16.54h2.81a5.9,5.9,0,0,0,2.19-.26,3.73,3.73,0,0,0,2.65-3.85,3.83,3.83,0,0,0-2.6-3.9,5.87,5.87,0,0,0-2.13-.26h-2.91v8.27Z"/><path d="M150,251.08a19.86,19.86,0,0,1,4.58-12.43,19.64,19.64,0,0,1,14.57-6.71,20,20,0,0,1,12.43,4.58,19.48,19.48,0,0,1,6.71,14.62,19.8,19.8,0,0,1-4.53,12.33A19.16,19.16,0,0,1,150,251.08Zm19.14,9.78a9.86,9.86,0,0,0,7.07-3.07,10,10,0,0,0,2.65-6.66,10.86,10.86,0,0,0-.62-3.43,9.86,9.86,0,0,0-9.1-6.29,10.14,10.14,0,0,0-6.82,2.81A9.73,9.73,0,0,0,169.15,260.86Z"/><path d="M216.91,232.82V261h11v8.58h-20.5V232.82h9.47Z"/><path d="M261.29,232.82v36.73h-9.36V232.82h9.36Z"/><path d="M309.46,246.56a12.83,12.83,0,0,0-.88-1.41,9.09,9.09,0,0,0-7.39-3.64,9.35,9.35,0,0,0-4,.83,9.48,9.48,0,0,0-5.77,8.84,9.94,9.94,0,0,0,.73,3.59,9.75,9.75,0,0,0,9,6,9.57,9.57,0,0,0,3.17-.52,10.7,10.7,0,0,0,4-2.81,15.85,15.85,0,0,0,1.14-1.72h10.2a26.06,26.06,0,0,1-1.82,4.53,19.07,19.07,0,0,1-12,9.47,18.84,18.84,0,0,1-4.58.52,19.17,19.17,0,0,1-16.13-8.43A17.57,17.57,0,0,1,282,251.45a19.4,19.4,0,0,1,9.52-16.91,19.11,19.11,0,0,1,9.57-2.5,18.88,18.88,0,0,1,12.12,4.37,19.23,19.23,0,0,1,6.45,10.14h-10.2Z"/><path d="M346,232.82l4.37,10.51c0.42,1,.83,2.13,1.2,3.17,0.62-1.61,1.3-3.23,2-4.79l3.75-8.9H367l-10.87,23v13.68h-9.42V256l-11-23.2H346Z"/></svg>